<?xml version="1.0" standalone="no"?>
 <!DOCTYPE svg PUBLIC "-//W3C//DTD SVG 1.1//EN" 
 "http://www.w3.org/Graphics/SVG/1.1/DTD/svg11.dtd"> 
<svg xmlns="http://www.w3.org/2000/svg" version="1.1" 
    width="10.3581cm" height="10.0178cm" viewBox="0 0 40780 39440 ">
<title>SVG Picture created as joule_thief_breakout_boards-brd.svg date 2017/10/19 20:13:39 </title>
  <desc>Picture generated by PCBNEW </desc>
<g style="fill:#000000; fill-opacity:1;stroke:#000000; stroke-opacity:1;
stroke-linecap:round; stroke-linejoin:round; "
 transform="translate(0 0) scale(1 1)">
</g>
<g style="fill:#000000; fill-opacity:0.0; 
stroke:#000000; stroke-width:-0.000393701; stroke-opacity:1; 
stroke-linecap:round; stroke-linejoin:round;">
</g>
<g style="fill:#000000; fill-opacity:0.0; 
stroke:#000000; stroke-width:0; stroke-opacity:1; 
stroke-linecap:round; stroke-linejoin:round;">
</g>
<g style="fill:#000000; fill-opacity:1.0; 
stroke:#000000; stroke-width:0; stroke-opacity:1; 
stroke-linecap:round; stroke-linejoin:round;">
<polyline style="fill-rule:evenodd;"
points="3173,25298
3665,25298
3665,25888
3173,25888
3173,25298
" /> 
<polyline style="fill-rule:evenodd;"
points="3173,26282
3665,26282
3665,26873
3173,26873
3173,26282
" /> 
<polyline style="fill-rule:evenodd;"
points="2162,20960
2162,20511
2280,20511
2280,20960
2162,20960
" /> 
<polyline style="fill-rule:evenodd;"
points="2457,20960
2457,20511
2859,20511
2859,20960
2457,20960
" /> 
<polyline style="fill-rule:evenodd;"
points="1926,20893
1926,20578
2162,20578
2162,20893
1926,20893
" /> 
<polyline style="fill-rule:evenodd;"
points="2859,20893
2859,20578
3107,20578
3107,20893
2859,20893
" /> 
<polyline style="fill-rule:evenodd;"
points="6675,26412
6163,26412
6163,25822
6675,25822
6675,26412
" /> 
<polyline style="fill-rule:evenodd;"
points="6675,25349
6163,25349
6163,24759
6675,24759
6675,25349
" /> 
<polyline style="fill-rule:evenodd;"
points="4417,24747
4673,24747
4673,25361
4417,25361
4417,24747
" /> 
<polyline style="fill-rule:evenodd;"
points="4791,24747
5047,24747
5047,25361
4791,25361
4791,24747
" /> 
<polyline style="fill-rule:evenodd;"
points="5165,24747
5421,24747
5421,25361
5165,25361
5165,24747
" /> 
<polyline style="fill-rule:evenodd;"
points="5165,25810
5421,25810
5421,26424
5165,26424
5165,25810
" /> 
<polyline style="fill-rule:evenodd;"
points="4417,25810
4673,25810
4673,26424
4417,26424
4417,25810
" /> 
<polyline style="fill-rule:evenodd;"
points="2312,13392
2312,14179
1525,14179
1525,13392
2312,13392
" /> 
</g>
<g style="fill:#000000; fill-opacity:1.0; 
stroke:#000000; stroke-width:787.402; stroke-opacity:1; 
stroke-linecap:round; stroke-linejoin:round;">
</g>
<g style="fill:#000000; fill-opacity:0.0; 
stroke:#000000; stroke-width:787.402; stroke-opacity:1; 
stroke-linecap:round; stroke-linejoin:round;">
<path d="M1919 12785
L1919 12785
" />
</g>
<g style="fill:#000000; fill-opacity:0.0; 
stroke:#000000; stroke-width:0; stroke-opacity:1; 
stroke-linecap:round; stroke-linejoin:round;">
</g>
<g style="fill:#000000; fill-opacity:1.0; 
stroke:#000000; stroke-width:0; stroke-opacity:1; 
stroke-linecap:round; stroke-linejoin:round;">
<polyline style="fill-rule:evenodd;"
points="1575,17229
1575,16442
2362,16442
2362,17229
1575,17229
" /> 
</g>
<g style="fill:#000000; fill-opacity:1.0; 
stroke:#000000; stroke-width:787.402; stroke-opacity:1; 
stroke-linecap:round; stroke-linejoin:round;">
</g>
<g style="fill:#000000; fill-opacity:0.0; 
stroke:#000000; stroke-width:787.402; stroke-opacity:1; 
stroke-linecap:round; stroke-linejoin:round;">
<path d="M1969 17835
L1969 17835
" />
</g>
<g style="fill:#000000; fill-opacity:0.0; 
stroke:#000000; stroke-width:0; stroke-opacity:1; 
stroke-linecap:round; stroke-linejoin:round;">
</g>
<g style="fill:#000000; fill-opacity:1.0; 
stroke:#000000; stroke-width:0; stroke-opacity:1; 
stroke-linecap:round; stroke-linejoin:round;">
<polyline style="fill-rule:evenodd;"
points="5575,17229
5575,16442
6362,16442
6362,17229
5575,17229
" /> 
</g>
<g style="fill:#000000; fill-opacity:1.0; 
stroke:#000000; stroke-width:787.402; stroke-opacity:1; 
stroke-linecap:round; stroke-linejoin:round;">
</g>
<g style="fill:#000000; fill-opacity:0.0; 
stroke:#000000; stroke-width:787.402; stroke-opacity:1; 
stroke-linecap:round; stroke-linejoin:round;">
<path d="M5969 17835
L5969 17835
" />
</g>
<g style="fill:#000000; fill-opacity:0.0; 
stroke:#000000; stroke-width:0; stroke-opacity:1; 
stroke-linecap:round; stroke-linejoin:round;">
</g>
<g style="fill:#000000; fill-opacity:1.0; 
stroke:#000000; stroke-width:0; stroke-opacity:1; 
stroke-linecap:round; stroke-linejoin:round;">
<polyline style="fill-rule:evenodd;"
points="5312,13392
5312,14179
4525,14179
4525,13392
5312,13392
" /> 
</g>
<g style="fill:#000000; fill-opacity:1.0; 
stroke:#000000; stroke-width:787.402; stroke-opacity:1; 
stroke-linecap:round; stroke-linejoin:round;">
</g>
<g style="fill:#000000; fill-opacity:0.0; 
stroke:#000000; stroke-width:787.402; stroke-opacity:1; 
stroke-linecap:round; stroke-linejoin:round;">
<path d="M4919 12785
L4919 12785
" />
</g>
<g style="fill:#000000; fill-opacity:0.0; 
stroke:#000000; stroke-width:0; stroke-opacity:1; 
stroke-linecap:round; stroke-linejoin:round;">
</g>
<g style="fill:#000000; fill-opacity:1.0; 
stroke:#000000; stroke-width:0; stroke-opacity:1; 
stroke-linecap:round; stroke-linejoin:round;">
<polyline style="fill-rule:evenodd;"
points="2362,22629
1575,22629
1575,21842
2362,21842
2362,22629
" /> 
</g>
<g style="fill:#000000; fill-opacity:1.0; 
stroke:#000000; stroke-width:787.402; stroke-opacity:1; 
stroke-linecap:round; stroke-linejoin:round;">
</g>
<g style="fill:#000000; fill-opacity:0.0; 
stroke:#000000; stroke-width:787.402; stroke-opacity:1; 
stroke-linecap:round; stroke-linejoin:round;">
<path d="M2969 22235
L2969 22235
" />
</g>
<g style="fill:#000000; fill-opacity:0.0; 
stroke:#000000; stroke-width:0; stroke-opacity:1; 
stroke-linecap:round; stroke-linejoin:round;">
</g>
<g style="fill:#000000; fill-opacity:1.0; 
stroke:#000000; stroke-width:0; stroke-opacity:1; 
stroke-linecap:round; stroke-linejoin:round;">
<polyline style="fill-rule:evenodd;"
points="7525,25479
7525,24692
8312,24692
8312,25479
7525,25479
" /> 
</g>
<g style="fill:#000000; fill-opacity:1.0; 
stroke:#000000; stroke-width:787.402; stroke-opacity:1; 
stroke-linecap:round; stroke-linejoin:round;">
</g>
<g style="fill:#000000; fill-opacity:0.0; 
stroke:#000000; stroke-width:787.402; stroke-opacity:1; 
stroke-linecap:round; stroke-linejoin:round;">
<path d="M7919 26085
L7919 26085
" />
<path d="M7919 27085
L7919 27085
" />
</g>
<g style="fill:#000000; fill-opacity:0.0; 
stroke:#000000; stroke-width:0; stroke-opacity:1; 
stroke-linecap:round; stroke-linejoin:round;">
</g>
<g style="fill:#000000; fill-opacity:1.0; 
stroke:#000000; stroke-width:0; stroke-opacity:1; 
stroke-linecap:round; stroke-linejoin:round;">
<polyline style="fill-rule:evenodd;"
points="1525,25479
1525,24692
2312,24692
2312,25479
1525,25479
" /> 
</g>
<g style="fill:#000000; fill-opacity:1.0; 
stroke:#000000; stroke-width:787.402; stroke-opacity:1; 
stroke-linecap:round; stroke-linejoin:round;">
</g>
<g style="fill:#000000; fill-opacity:0.0; 
stroke:#000000; stroke-width:787.402; stroke-opacity:1; 
stroke-linecap:round; stroke-linejoin:round;">
<path d="M1919 26085
L1919 26085
" />
<path d="M1919 27085
L1919 27085
" />
</g>
<g style="fill:#000000; fill-opacity:0.0; 
stroke:#000000; stroke-width:0; stroke-opacity:1; 
stroke-linecap:round; stroke-linejoin:round;">
</g>
<g style="fill:#000000; fill-opacity:1.0; 
stroke:#000000; stroke-width:0; stroke-opacity:1; 
stroke-linecap:round; stroke-linejoin:round;">
<polyline style="fill-rule:evenodd;"
points="2907,13531
2907,13374
3202,13374
3202,13531
2907,13531
" /> 
<polyline style="fill-rule:evenodd;"
points="3635,13531
3635,13374
3930,13374
3930,13531
3635,13531
" /> 
<polyline style="fill-rule:evenodd;"
points="3635,13197
3635,13039
3930,13039
3930,13197
3635,13197
" /> 
<polyline style="fill-rule:evenodd;"
points="2907,13197
2907,13039
3202,13039
3202,13197
2907,13197
" /> 
<polyline style="fill-rule:evenodd;"
points="2945,17158
2945,16627
3378,16627
3378,17158
2945,17158
" /> 
<polyline style="fill-rule:evenodd;"
points="4559,17158
4559,16627
4992,16627
4992,17158
4559,17158
" /> 
<polyline style="fill-rule:evenodd;"
points="4559,18044
4559,17512
4992,17512
4992,18044
4559,18044
" /> 
<polyline style="fill-rule:evenodd;"
points="2945,18044
2945,17512
3378,17512
3378,18044
2945,18044
" /> 
<polyline style="fill-rule:evenodd;"
points="3298,31317
3298,31002
3652,31002
3652,31317
3298,31317
" /> 
<polyline style="fill-rule:evenodd;"
points="3298,30569
3298,30254
3652,30254
3652,30569
3298,30569
" /> 
<polyline style="fill-rule:evenodd;"
points="4085,30943
4085,30628
4440,30628
4440,30943
4085,30943
" /> 
<polyline style="fill-rule:evenodd;"
points="2262,31392
2262,32179
1475,32179
1475,31392
2262,31392
" /> 
</g>
<g style="fill:#000000; fill-opacity:1.0; 
stroke:#000000; stroke-width:787.402; stroke-opacity:1; 
stroke-linecap:round; stroke-linejoin:round;">
</g>
<g style="fill:#000000; fill-opacity:0.0; 
stroke:#000000; stroke-width:787.402; stroke-opacity:1; 
stroke-linecap:round; stroke-linejoin:round;">
<path d="M1869 30785
L1869 30785
" />
<path d="M1869 29785
L1869 29785
" />
</g>
<g style="fill:#000000; fill-opacity:0.0; 
stroke:#000000; stroke-width:0; stroke-opacity:1; 
stroke-linecap:round; stroke-linejoin:round;">
</g>
<g style="fill:#000000; fill-opacity:1.0; 
stroke:#000000; stroke-width:0; stroke-opacity:1; 
stroke-linecap:round; stroke-linejoin:round;">
<polyline style="fill-rule:evenodd;"
points="2640,8807
2640,8570
2995,8570
2995,8807
2640,8807
" /> 
<polyline style="fill-rule:evenodd;"
points="3743,8807
3743,8570
4097,8570
4097,8807
3743,8807
" /> 
<polyline style="fill-rule:evenodd;"
points="3743,9200
3743,8964
4097,8964
4097,9200
3743,9200
" /> 
<polyline style="fill-rule:evenodd;"
points="2640,9200
2640,8964
2995,8964
2995,9200
2640,9200
" /> 
<polyline style="fill-rule:evenodd;"
points="1475,8779
1475,7992
2262,7992
2262,8779
1475,8779
" /> 
</g>
<g style="fill:#000000; fill-opacity:1.0; 
stroke:#000000; stroke-width:787.402; stroke-opacity:1; 
stroke-linecap:round; stroke-linejoin:round;">
</g>
<g style="fill:#000000; fill-opacity:0.0; 
stroke:#000000; stroke-width:787.402; stroke-opacity:1; 
stroke-linecap:round; stroke-linejoin:round;">
<path d="M1869 9385
L1869 9385
" />
</g>
<g style="fill:#000000; fill-opacity:0.0; 
stroke:#000000; stroke-width:0; stroke-opacity:1; 
stroke-linecap:round; stroke-linejoin:round;">
</g>
<g style="fill:#000000; fill-opacity:1.0; 
stroke:#000000; stroke-width:0; stroke-opacity:1; 
stroke-linecap:round; stroke-linejoin:round;">
<polyline style="fill-rule:evenodd;"
points="4475,8779
4475,7992
5262,7992
5262,8779
4475,8779
" /> 
</g>
<g style="fill:#000000; fill-opacity:1.0; 
stroke:#000000; stroke-width:787.402; stroke-opacity:1; 
stroke-linecap:round; stroke-linejoin:round;">
</g>
<g style="fill:#000000; fill-opacity:0.0; 
stroke:#000000; stroke-width:787.402; stroke-opacity:1; 
stroke-linecap:round; stroke-linejoin:round;">
<path d="M4869 9385
L4869 9385
" />
</g>
<g style="fill:#000000; fill-opacity:0.0; 
stroke:#000000; stroke-width:0; stroke-opacity:1; 
stroke-linecap:round; stroke-linejoin:round;">
</g>
<g style="fill:#000000; fill-opacity:1.0; 
stroke:#000000; stroke-width:0; stroke-opacity:1; 
stroke-linecap:round; stroke-linejoin:round;">
<polyline style="fill-rule:evenodd;"
points="13710,4625
15269,4625
15269,5546
13710,5546
13710,4625
" /> 
<polyline style="fill-rule:evenodd;"
points="35769,4625
37328,4625
37328,5546
35769,5546
35769,4625
" /> 
<polyline style="fill-rule:evenodd;"
points="18769,4085
20328,4085
20328,6085
18769,6085
18769,4085
" /> 
<polyline style="fill-rule:evenodd;"
points="30710,4085
32269,4085
32269,6085
30710,6085
30710,4085
" /> 
<polyline style="fill-rule:evenodd;"
points="16873,18998
17365,18998
17365,19588
16873,19588
16873,18998
" /> 
<polyline style="fill-rule:evenodd;"
points="16873,19982
17365,19982
17365,20573
16873,20573
16873,19982
" /> 
<polyline style="fill-rule:evenodd;"
points="20873,18998
21365,18998
21365,19588
20873,19588
20873,18998
" /> 
<polyline style="fill-rule:evenodd;"
points="20873,19982
21365,19982
21365,20573
20873,20573
20873,19982
" /> 
<polyline style="fill-rule:evenodd;"
points="16231,15331
16231,14839
16822,14839
16822,15331
16231,15331
" /> 
<polyline style="fill-rule:evenodd;"
points="17215,15331
17215,14839
17806,14839
17806,15331
17215,15331
" /> 
<polyline style="fill-rule:evenodd;"
points="19495,11908
19495,11377
19928,11377
19928,11908
19495,11908
" /> 
<polyline style="fill-rule:evenodd;"
points="21109,11908
21109,11377
21542,11377
21542,11908
21109,11908
" /> 
<polyline style="fill-rule:evenodd;"
points="21109,12794
21109,12262
21542,12262
21542,12794
21109,12794
" /> 
<polyline style="fill-rule:evenodd;"
points="19495,12794
19495,12262
19928,12262
19928,12794
19495,12794
" /> 
<polyline style="fill-rule:evenodd;"
points="22948,12167
22948,11852
23302,11852
23302,12167
22948,12167
" /> 
<polyline style="fill-rule:evenodd;"
points="22948,11419
22948,11104
23302,11104
23302,11419
22948,11419
" /> 
<polyline style="fill-rule:evenodd;"
points="23735,11793
23735,11478
24090,11478
24090,11793
23735,11793
" /> 
<polyline style="fill-rule:evenodd;"
points="17345,11829
17345,12341
16755,12341
16755,11829
17345,11829
" /> 
<polyline style="fill-rule:evenodd;"
points="16282,11829
16282,12341
15692,12341
15692,11829
16282,11829
" /> 
<polyline style="fill-rule:evenodd;"
points="23395,13129
23395,13641
22805,13641
22805,13129
23395,13129
" /> 
<polyline style="fill-rule:evenodd;"
points="22332,13129
22332,13641
21742,13641
21742,13129
22332,13129
" /> 
<polyline style="fill-rule:evenodd;"
points="20252,21272
19780,21272
19780,20406
20252,20406
20252,21272
" /> 
<polyline style="fill-rule:evenodd;"
points="18457,21272
17985,21272
17985,20406
18457,20406
18457,21272
" /> 
<polyline style="fill-rule:evenodd;"
points="20260,19618
17977,19618
17977,17099
20260,17099
20260,19618
" /> 
<polyline style="fill-rule:evenodd;"
points="19060,18300
17977,18300
17977,17099
19060,17099
19060,18300
" /> 
<polyline style="fill-rule:evenodd;"
points="20260,19618
19178,19618
19178,18418
20260,18418
20260,19618
" /> 
<polyline style="fill-rule:evenodd;"
points="20260,18300
19178,18300
19178,17099
20260,17099
20260,18300
" /> 
<polyline style="fill-rule:evenodd;"
points="19060,19618
17977,19618
17977,18418
19060,18418
19060,19618
" /> 
<polyline style="fill-rule:evenodd;"
points="15452,14087
15452,13831
16239,13831
16239,14087
15452,14087
" /> 
<polyline style="fill-rule:evenodd;"
points="15452,13713
15452,13457
16239,13457
16239,13713
15452,13713
" /> 
<polyline style="fill-rule:evenodd;"
points="15452,13339
15452,13083
16239,13083
16239,13339
15452,13339
" /> 
<polyline style="fill-rule:evenodd;"
points="16798,13339
16798,13083
17586,13083
17586,13339
16798,13339
" /> 
<polyline style="fill-rule:evenodd;"
points="16798,14087
16798,13831
17586,13831
17586,14087
16798,14087
" /> 
<polyline style="fill-rule:evenodd;"
points="13425,19879
13425,19092
14212,19092
14212,19879
13425,19879
" /> 
</g>
<g style="fill:#000000; fill-opacity:1.0; 
stroke:#000000; stroke-width:787.402; stroke-opacity:1; 
stroke-linecap:round; stroke-linejoin:round;">
</g>
<g style="fill:#000000; fill-opacity:0.0; 
stroke:#000000; stroke-width:787.402; stroke-opacity:1; 
stroke-linecap:round; stroke-linejoin:round;">
<path d="M13819 20485
L13819 20485
" />
</g>
<g style="fill:#000000; fill-opacity:0.0; 
stroke:#000000; stroke-width:0; stroke-opacity:1; 
stroke-linecap:round; stroke-linejoin:round;">
</g>
<g style="fill:#000000; fill-opacity:1.0; 
stroke:#000000; stroke-width:0; stroke-opacity:1; 
stroke-linecap:round; stroke-linejoin:round;">
<polyline style="fill-rule:evenodd;"
points="25412,9479
24625,9479
24625,8692
25412,8692
25412,9479
" /> 
</g>
<g style="fill:#000000; fill-opacity:1.0; 
stroke:#000000; stroke-width:787.402; stroke-opacity:1; 
stroke-linecap:round; stroke-linejoin:round;">
</g>
<g style="fill:#000000; fill-opacity:0.0; 
stroke:#000000; stroke-width:787.402; stroke-opacity:1; 
stroke-linecap:round; stroke-linejoin:round;">
<path d="M26019 9085
L26019 9085
" />
</g>
<g style="fill:#000000; fill-opacity:0.0; 
stroke:#000000; stroke-width:0; stroke-opacity:1; 
stroke-linecap:round; stroke-linejoin:round;">
</g>
<g style="fill:#000000; fill-opacity:1.0; 
stroke:#000000; stroke-width:0; stroke-opacity:1; 
stroke-linecap:round; stroke-linejoin:round;">
<polyline style="fill-rule:evenodd;"
points="13425,14379
13425,13592
14212,13592
14212,14379
13425,14379
" /> 
</g>
<g style="fill:#000000; fill-opacity:1.0; 
stroke:#000000; stroke-width:787.402; stroke-opacity:1; 
stroke-linecap:round; stroke-linejoin:round;">
</g>
<g style="fill:#000000; fill-opacity:0.0; 
stroke:#000000; stroke-width:787.402; stroke-opacity:1; 
stroke-linecap:round; stroke-linejoin:round;">
<path d="M13819 14985
L13819 14985
" />
</g>
<g style="fill:#000000; fill-opacity:0.0; 
stroke:#000000; stroke-width:0; stroke-opacity:1; 
stroke-linecap:round; stroke-linejoin:round;">
</g>
<g style="fill:#000000; fill-opacity:1.0; 
stroke:#000000; stroke-width:0; stroke-opacity:1; 
stroke-linecap:round; stroke-linejoin:round;">
<polyline style="fill-rule:evenodd;"
points="30912,16579
30125,16579
30125,15792
30912,15792
30912,16579
" /> 
</g>
<g style="fill:#000000; fill-opacity:1.0; 
stroke:#000000; stroke-width:787.402; stroke-opacity:1; 
stroke-linecap:round; stroke-linejoin:round;">
</g>
<g style="fill:#000000; fill-opacity:0.0; 
stroke:#000000; stroke-width:787.402; stroke-opacity:1; 
stroke-linecap:round; stroke-linejoin:round;">
<path d="M31519 16185
L31519 16185
" />
</g>
<g style="fill:#000000; fill-opacity:0.0; 
stroke:#000000; stroke-width:0; stroke-opacity:1; 
stroke-linecap:round; stroke-linejoin:round;">
</g>
<g style="fill:#000000; fill-opacity:1.0; 
stroke:#000000; stroke-width:0; stroke-opacity:1; 
stroke-linecap:round; stroke-linejoin:round;">
<polyline style="fill-rule:evenodd;"
points="32125,13792
32912,13792
32912,14579
32125,14579
32125,13792
" /> 
</g>
<g style="fill:#000000; fill-opacity:1.0; 
stroke:#000000; stroke-width:787.402; stroke-opacity:1; 
stroke-linecap:round; stroke-linejoin:round;">
</g>
<g style="fill:#000000; fill-opacity:0.0; 
stroke:#000000; stroke-width:787.402; stroke-opacity:1; 
stroke-linecap:round; stroke-linejoin:round;">
<path d="M31519 14185
L31519 14185
" />
<path d="M30519 14185
L30519 14185
" />
</g>
<g style="fill:#000000; fill-opacity:0.0; 
stroke:#000000; stroke-width:0; stroke-opacity:1; 
stroke-linecap:round; stroke-linejoin:round;">
</g>
<g style="fill:#000000; fill-opacity:1.0; 
stroke:#000000; stroke-width:0; stroke-opacity:1; 
stroke-linecap:round; stroke-linejoin:round;">
<polyline style="fill-rule:evenodd;"
points="27294,11397
27743,11397
27743,12047
27294,12047
27294,11397
" /> 
<polyline style="fill-rule:evenodd;"
points="27294,12224
27743,12224
27743,12578
27294,12578
27294,12224
" /> 
<polyline style="fill-rule:evenodd;"
points="29294,11397
29743,11397
29743,12047
29294,12047
29294,11397
" /> 
<polyline style="fill-rule:evenodd;"
points="29294,12224
29743,12224
29743,12578
29294,12578
29294,12224
" /> 
<polyline style="fill-rule:evenodd;"
points="31294,11397
31743,11397
31743,12047
31294,12047
31294,11397
" /> 
<polyline style="fill-rule:evenodd;"
points="31294,12224
31743,12224
31743,12578
31294,12578
31294,12224
" /> 
<polyline style="fill-rule:evenodd;"
points="33294,11397
33743,11397
33743,12047
33294,12047
33294,11397
" /> 
<polyline style="fill-rule:evenodd;"
points="33294,12224
33743,12224
33743,12578
33294,12578
33294,12224
" /> 
<polyline style="fill-rule:evenodd;"
points="35294,11397
35743,11397
35743,12047
35294,12047
35294,11397
" /> 
<polyline style="fill-rule:evenodd;"
points="35294,12224
35743,12224
35743,12578
35294,12578
35294,12224
" /> 
</g>
<g style="fill:#000000; fill-opacity:1.0; 
stroke:#000000; stroke-width:150; stroke-opacity:1; 
stroke-linecap:round; stroke-linejoin:round;">
</g>
<g style="fill:#000000; fill-opacity:0.0; 
stroke:#000000; stroke-width:150; stroke-opacity:1; 
stroke-linecap:round; stroke-linejoin:round;">
<path d="M7919 27085
L5169 27085
" />
<path d="M4919 26835
L4919 25535
" />
<path d="M5169 27085
L4919 26835
" />
<path d="M3419 25593
L4861 25593
" />
<path d="M4919 25535
L4919 25054
" />
<path d="M4861 25593
L4919 25535
" />
<path d="M1919 26085
L2927 26085
" />
<path d="M2927 26085
L3419 25593
" />
<path d="M3419 26577
L4084 26577
" />
<path d="M4084 26577
L4545 26117
" />
<path d="M1919 27085
L2911 27085
" />
<path d="M2911 27085
L3419 26577
" />
<path d="M1969 22235
L1969 20929
" />
<path d="M1969 20929
L2162 20735
" />
<path d="M2969 22235
L2969 20845
" />
<path d="M2969 20845
L2859 20735
" />
<path d="M1969 16835
L3104 16835
" />
<path d="M3104 16835
L3162 16892
" />
<path d="M5969 16835
L4833 16835
" />
<path d="M4833 16835
L4776 16892
" />
<path d="M5969 17835
L4833 17835
" />
<path d="M4833 17835
L4776 17778
" />
<path d="M1969 17835
L3104 17835
" />
<path d="M3104 17835
L3162 17778
" />
<path d="M1919 13785
L2722 13785
" />
<path d="M2722 13785
L3054 13453
" />
<path d="M4919 13785
L4115 13785
" />
<path d="M4115 13785
L3783 13453
" />
<path d="M4919 12785
L4115 12785
" />
<path d="M4115 12785
L3783 13118
" />
<path d="M1919 12785
L2722 12785
" />
<path d="M2722 12785
L3054 13118
" />
<path d="M7919 25085
L6450 25085
" />
<path d="M6450 25085
L6419 25054
" />
<path d="M6419 25054
L5293 25054
" />
<path d="M5293 26117
L6419 26117
" />
<path d="M6419 26117
L6450 26085
" />
<path d="M6450 26085
L7919 26085
" />
<path d="M4545 25054
L1950 25054
" />
<path d="M1950 25054
L1919 25085
" />
<path d="M1869 31785
L3869 31785
" />
<path d="M4262 31392
L4262 30785
" />
<path d="M3869 31785
L4262 31392
" />
<path d="M1869 30785
L3101 30785
" />
<path d="M3101 30785
L3475 31159
" />
<path d="M1869 29785
L2849 29785
" />
<path d="M2849 29785
L3475 30411
" />
<path d="M1869 8385
L2514 8385
" />
<path d="M2514 8385
L2817 8688
" />
<path d="M4869 8385
L4223 8385
" />
<path d="M4223 8385
L3920 8688
" />
<path d="M4869 9385
L4223 9385
" />
<path d="M4223 9385
L3920 9082
" />
<path d="M1869 9385
L2514 9385
" />
<path d="M2514 9385
L2817 9082
" />
<path d="M18819 13959
L29445 13959
" />
<path d="M32519 13685
L32519 14185
" />
<path d="M32369 13535
L32519 13685
" />
<path d="M29869 13535
L32369 13535
" />
<path d="M29445 13959
L29869 13535
" />
<path d="M19119 18359
L19119 14235
" />
<path d="M18843 13959
L18819 13959
" />
<path d="M18819 13959
L17192 13959
" />
<path d="M19119 14235
L18843 13959
" />
<path d="M17511 15085
L17511 14278
" />
<path d="M17511 14278
L17192 13959
" />
<path d="M21119 19293
L20053 19293
" />
<path d="M20053 19293
L19119 18359
" />
<path d="M16527 15085
L16527 13643
" />
<path d="M16469 13585
L15845 13585
" />
<path d="M16527 13643
L16469 13585
" />
<path d="M30519 16185
L30519 14185
" />
<path d="M25019 9085
L23548 9085
" />
<path d="M23548 9085
L19548 5085
" />
<path d="M15845 13211
L15845 12227
" />
<path d="M15845 12227
L15987 12085
" />
<path d="M14489 5085
L14489 11656
" />
<path d="M14919 12085
L15987 12085
" />
<path d="M14489 11656
L14919 12085
" />
<path d="M14489 5085
L19548 5085
" />
<path d="M18221 20839
L18221 20396
" />
<path d="M18221 20396
L17119 19293
" />
<path d="M13819 19485
L16927 19485
" />
<path d="M16927 19485
L17119 19293
" />
<path d="M23912 11635
L23912 12479
" />
<path d="M23912 12479
L23919 12485
" />
<path d="M21326 11642
L23905 11642
" />
<path d="M23905 11642
L23912 11635
" />
<path d="M19712 11642
L20076 11642
" />
<path d="M20962 12528
L21326 12528
" />
<path d="M20076 11642
L20962 12528
" />
<path d="M19712 11642
L17493 11642
" />
<path d="M17493 11642
L17050 12085
" />
<path d="M17192 13211
L17192 12227
" />
<path d="M17192 12227
L17050 12085
" />
<path d="M22037 13385
L19919 13385
" />
<path d="M19712 13178
L19712 12528
" />
<path d="M19919 13385
L19712 13178
" />
<path d="M13819 13985
L15819 13985
" />
<path d="M15819 13985
L15845 13959
" />
<path d="M23100 13385
L23100 12034
" />
<path d="M23100 12034
L23125 12009
" />
</g>
<g style="fill:#000000; fill-opacity:1.0; 
stroke:#000000; stroke-width:50; stroke-opacity:1; 
stroke-linecap:round; stroke-linejoin:round;">
<polyline style="fill-rule:evenodd;"
points="39294,11960
37627,11960
37627,11865
37534,11641
37364,11470
37140,11377
36898,11377
36675,11470
36503,11640
36411,11864
36411,11960
35868,11960
35868,11878
35837,11847
35631,11847
35631,11855
35406,11855
35406,11847
35200,11847
35169,11878
35169,11960
33868,11960
33868,11878
33837,11847
33631,11847
33631,11855
33406,11855
33406,11847
33200,11847
33169,11878
33169,11960
31868,11960
31868,11878
31837,11847
31631,11847
31631,11855
31406,11855
31406,11847
31200,11847
31169,11878
31169,11960
29868,11960
29868,11878
29837,11847
29631,11847
29631,11855
29406,11855
29406,11847
29200,11847
29169,11878
29169,11960
27868,11960
27868,11878
27837,11847
27631,11847
27631,11855
27406,11855
27406,11847
27200,11847
27169,11878
27169,11960
26627,11960
26627,11865
26534,11641
26364,11470
26140,11377
25898,11377
25675,11470
25503,11640
25411,11864
25411,11960
24162,11960
24162,11954
24214,11921
24254,11862
24268,11793
24268,11478
24256,11413
24230,11372
27169,11372
27169,11566
27200,11597
27406,11597
27406,11303
27631,11303
27631,11597
27837,11597
27868,11566
27868,11372
29169,11372
29169,11566
29200,11597
29406,11597
29406,11303
29631,11303
29631,11597
29837,11597
29868,11566
29868,11372
31169,11372
31169,11566
31200,11597
31406,11597
31406,11303
31631,11303
31631,11597
31837,11597
31868,11566
31868,11372
33169,11372
33169,11566
33200,11597
33406,11597
33406,11303
33631,11303
33631,11597
33837,11597
33868,11566
33868,11372
35169,11372
35169,11566
35200,11597
35406,11597
35406,11303
35631,11303
35631,11597
35837,11597
35868,11566
35868,11372
35849,11326
35814,11291
35768,11272
35662,11272
35631,11303
35406,11303
35375,11272
35269,11272
35223,11291
35188,11326
35169,11372
33868,11372
33849,11326
33814,11291
33768,11272
33662,11272
33631,11303
33406,11303
33375,11272
33269,11272
33223,11291
33188,11326
33169,11372
31868,11372
31849,11326
31814,11291
31768,11272
31662,11272
31631,11303
31406,11303
31375,11272
31269,11272
31223,11291
31188,11326
31169,11372
29868,11372
29849,11326
29814,11291
29768,11272
29662,11272
29631,11303
29406,11303
29375,11272
29269,11272
29223,11291
29188,11326
29169,11372
27868,11372
27849,11326
27814,11291
27768,11272
27662,11272
27631,11303
27406,11303
27375,11272
27269,11272
27223,11291
27188,11326
27169,11372
24230,11372
24217,11353
24159,11313
24090,11299
23735,11299
23670,11312
23611,11350
23582,11392
23427,11392
23427,11371
23396,11340
23214,11340
23214,11392
23036,11392
23036,11340
22854,11340
22823,11371
22823,11392
21721,11392
21721,11377
21708,11312
21670,11252
21612,11212
21542,11198
21109,11198
21044,11210
20985,11249
20945,11307
20931,11377
20931,11908
20941,11960
20747,11960
20253,11466
20171,11411
20107,11399
20107,11377
20094,11312
20056,11252
19998,11212
19928,11198
19495,11198
19430,11210
19371,11249
19331,11307
19317,11377
19317,11392
17493,11392
17397,11411
17316,11466
17131,11651
16755,11651
16690,11663
16630,11702
16590,11760
16576,11829
16576,11960
16461,11960
16461,11829
16449,11765
16410,11705
16352,11665
16282,11651
15692,11651
15627,11663
15567,11702
15527,11760
15513,11829
15513,11835
15022,11835
14739,11552
14739,11079
22823,11079
22823,11151
22854,11183
23036,11183
23036,11010
23214,11010
23214,11183
23396,11183
23427,11151
23427,11079
23408,11033
23373,10998
23327,10979
23245,10979
23214,11010
23036,11010
23005,10979
22923,10979
22877,10998
22842,11033
22823,11079
14739,11079
14739,7810
21920,7810
23371,9262
23452,9316
23548,9335
24447,9335
24447,9479
24459,9544
24497,9603
24556,9643
24625,9657
25412,9657
25477,9645
25537,9607
25577,9548
25591,9479
25591,9361
25655,9455
25816,9563
25894,9556
25894,9210
26144,9210
26144,9556
26221,9563
26383,9455
26496,9288
26491,9210
26144,9210
25894,9210
25886,9210
25886,8960
25894,8960
25894,8614
26144,8614
26144,8960
26491,8960
26496,8883
26383,8716
26221,8608
26144,8614
25894,8614
25816,8608
25655,8716
25591,8810
25591,8692
25579,8627
25540,8567
25482,8527
25412,8513
24625,8513
24560,8525
24501,8564
24461,8622
24447,8692
24447,8835
23652,8835
22294,7477
22294,5242
30585,5242
30585,6110
30604,6156
30639,6191
30685,6210
31333,6210
31364,6179
31364,5210
31614,5210
31614,6179
31645,6210
32294,6210
32339,6191
32375,6156
32394,6110
32394,5242
35644,5242
35644,5571
35663,5617
35698,5652
35744,5671
36392,5671
36423,5640
36423,5210
36673,5210
36673,5640
36704,5671
37353,5671
37399,5652
37434,5617
37453,5571
37453,5242
37421,5210
36673,5210
36423,5210
35675,5210
35644,5242
32394,5242
32362,5210
31614,5210
31364,5210
30616,5210
30585,5242
22294,5242
22294,4060
30585,4060
30585,4929
30616,4960
31364,4960
31364,3992
31614,3992
31614,4960
32362,4960
32394,4929
32394,4600
35644,4600
35644,4929
35675,4960
36423,4960
36423,4531
36673,4531
36673,4960
37421,4960
37453,4929
37453,4600
37434,4554
37399,4519
37353,4500
36704,4500
36673,4531
36423,4531
36392,4500
35744,4500
35698,4519
35663,4554
35644,4600
32394,4600
32394,4060
32375,4015
32339,3979
32294,3960
31645,3960
31614,3992
31364,3992
31333,3960
30685,3960
30639,3979
30604,4015
30585,4060
22294,4060
22294,2385
22292,2376
22287,2368
22278,2362
22269,2360
13319,2360
13310,2362
13301,2367
13296,2376
13294,2385
13294,7785
13295,7794
13301,7803
13309,7808
13319,7810
14239,7810
14239,11656
14258,11751
14312,11833
14440,11960
11894,11960
11894,110
39294,110
39294,11960
" /> 
<polyline style="fill-rule:evenodd;"
points="25503,12329
25674,12501
25897,12593
26139,12594
26315,12521
27169,12521
27169,12603
27188,12649
27223,12684
27269,12703
27375,12703
27406,12672
27406,12490
27631,12490
27631,12672
27662,12703
27768,12703
27814,12684
27849,12649
27868,12603
27868,12521
29169,12521
29169,12603
29188,12649
29223,12684
29269,12703
29375,12703
29406,12672
29406,12490
29631,12490
29631,12672
29662,12703
29768,12703
29814,12684
29849,12649
29868,12603
29868,12521
31169,12521
31169,12603
31188,12649
31223,12684
31269,12703
31375,12703
31406,12672
31406,12490
31631,12490
31631,12672
31662,12703
31768,12703
31814,12684
31849,12649
31868,12603
31868,12521
33169,12521
33169,12603
33188,12649
33223,12684
33269,12703
33375,12703
33406,12672
33406,12490
33631,12490
33631,12672
33662,12703
33768,12703
33814,12684
33849,12649
33868,12603
33868,12521
35169,12521
35169,12603
35188,12649
35223,12684
35269,12703
35375,12703
35406,12672
35406,12490
35631,12490
35631,12672
35662,12703
35768,12703
35814,12684
35849,12649
35868,12603
35868,12521
35837,12490
35631,12490
35406,12490
35200,12490
35169,12521
33868,12521
33837,12490
33631,12490
33406,12490
33200,12490
33169,12521
31868,12521
31837,12490
31631,12490
31406,12490
31200,12490
31169,12521
29868,12521
29837,12490
29631,12490
29406,12490
29200,12490
29169,12521
27868,12521
27837,12490
27631,12490
27406,12490
27200,12490
27169,12521
26315,12521
26363,12501
26534,12330
26584,12210
27169,12210
27169,12281
27200,12312
27406,12312
27406,12268
27631,12268
27631,12312
27837,12312
27868,12281
27868,12210
29169,12210
29169,12281
29200,12312
29406,12312
29406,12268
29631,12268
29631,12312
29837,12312
29868,12281
29868,12210
31169,12210
31169,12281
31200,12312
31406,12312
31406,12268
31631,12268
31631,12312
31837,12312
31868,12281
31868,12210
33169,12210
33169,12281
33200,12312
33406,12312
33406,12268
33631,12268
33631,12312
33837,12312
33868,12281
33868,12210
35169,12210
35169,12281
35200,12312
35406,12312
35406,12268
35631,12268
35631,12312
35837,12312
35868,12281
35868,12210
36454,12210
36503,12329
36674,12501
36897,12593
37139,12594
37363,12501
37534,12330
37584,12210
39294,12210
39294,13360
23594,13360
23594,12210
25454,12210
25503,12329
" /> 
<polyline style="fill-rule:evenodd;"
points="13247,14379
13259,14444
13297,14503
13356,14543
13425,14557
13543,14557
13449,14621
13341,14783
13347,14860
13694,14860
13694,14852
13944,14852
13944,14860
14290,14860
14294,14814
16106,14814
16106,14931
16137,14962
16402,14962
16402,14746
16652,14746
16652,14962
16916,14962
16947,14931
16947,14814
16928,14768
16893,14733
16847,14714
16683,14714
16652,14746
16402,14746
16370,14714
16206,14714
16160,14733
16125,14768
16106,14814
14294,14814
14296,14783
14188,14621
14094,14557
14212,14557
14277,14545
14337,14507
14377,14448
14391,14379
14391,14235
15358,14235
15382,14252
15452,14266
16239,14266
16304,14254
16364,14215
16367,14210
16669,14210
16670,14212
16729,14252
16798,14266
17145,14266
17261,14382
17261,14661
17215,14661
17151,14673
17091,14711
17051,14770
17037,14839
17037,15331
17049,15396
17088,15456
17146,15496
17215,15510
17806,15510
17871,15498
17930,15459
17970,15401
17984,15331
17984,14839
17972,14774
17934,14715
17875,14675
17806,14661
17761,14661
17761,14278
17747,14210
18740,14210
18869,14339
18869,16920
17977,16920
17912,16932
17852,16971
17813,17029
17798,17099
17798,19618
17799,19620
17543,19364
17543,18998
17531,18933
17493,18874
17434,18834
17365,18819
16873,18819
16808,18832
16748,18870
16708,18929
16694,18998
16694,19235
14391,19235
14391,19092
14379,19027
14340,18967
14282,18927
14212,18913
13425,18913
13360,18925
13301,18964
13261,19022
13247,19092
13247,19879
13259,19944
13297,20003
13356,20043
13425,20057
13543,20057
13449,20121
13341,20283
13347,20360
13694,20360
13694,20352
13944,20352
13944,20360
14290,20360
14296,20283
14188,20121
14094,20057
14212,20057
14277,20045
14337,20007
14371,19957
16748,19957
16748,20121
16779,20152
16996,20152
16996,19888
16964,19857
16848,19857
16802,19876
16767,19911
16748,19957
14371,19957
14377,19948
14391,19879
14391,19735
16778,19735
16803,19753
16873,19767
17239,19767
17329,19857
17273,19857
17242,19888
17242,20152
17458,20152
17490,20121
17490,20018
17818,20346
17806,20406
17806,21272
17819,21337
17857,21396
17915,21436
17985,21450
18457,21450
18522,21438
18582,21400
18622,21341
18636,21272
18636,20995
19655,20995
19655,21297
19674,21343
19709,21378
19755,21397
19867,21397
19898,21366
19898,20964
20134,20964
20134,21366
20166,21397
20277,21397
20323,21378
20358,21343
20377,21297
20377,20995
20346,20964
20134,20964
19898,20964
19686,20964
19655,20995
18636,20995
18636,20406
18631,20381
19655,20381
19655,20683
19686,20714
19898,20714
19898,20312
20134,20312
20134,20714
20346,20714
20377,20683
20377,20434
20748,20434
20748,20598
20767,20644
20802,20679
20848,20698
20964,20698
20996,20666
20996,20402
21242,20402
21242,20666
21273,20698
21390,20698
21436,20679
21471,20644
21490,20598
21490,20434
21458,20402
21242,20402
20996,20402
20779,20402
20748,20434
20377,20434
20377,20381
20358,20335
20323,20300
20277,20281
20166,20281
20134,20312
19898,20312
19867,20281
19755,20281
19709,20300
19674,20335
19655,20381
18631,20381
18623,20341
18585,20281
18527,20241
18457,20227
18404,20227
18398,20219
18136,19957
20748,19957
20748,20121
20779,20152
20996,20152
20996,19888
21242,19888
21242,20152
21458,20152
21490,20121
21490,19957
21471,19911
21436,19876
21390,19857
21273,19857
21242,19888
20996,19888
20964,19857
20848,19857
20802,19876
20767,19911
20748,19957
18136,19957
17976,19797
17977,19797
20260,19797
20325,19785
20385,19746
20425,19688
20439,19618
20439,19543
20694,19543
20694,19588
20706,19653
20745,19713
20803,19753
20873,19767
21365,19767
21430,19755
21489,19716
21529,19658
21543,19588
21543,18998
21531,18933
21493,18874
21434,18834
21365,18819
20873,18819
20808,18832
20748,18870
20708,18929
20694,18998
20694,19043
20439,19043
20439,17099
20427,17034
20388,16974
20330,16934
20260,16920
19369,16920
19369,14235
19364,14210
29953,14210
29993,14414
30117,14599
30269,14700
30269,15613
30125,15613
30060,15625
30001,15664
29961,15722
29947,15792
29947,16579
29959,16644
29997,16703
30056,16743
30125,16757
30912,16757
30977,16745
31037,16707
31077,16648
31091,16579
31091,16461
31155,16555
31316,16663
31394,16656
31394,16310
31644,16310
31644,16656
31721,16663
31883,16555
31996,16388
31991,16310
31644,16310
31394,16310
31386,16310
31386,16060
31394,16060
31394,15714
31644,15714
31644,16060
31991,16060
31996,15983
31883,15816
31721,15708
31644,15714
31394,15714
31316,15708
31155,15816
31091,15910
31091,15792
31079,15727
31040,15667
30982,15627
30912,15613
30769,15613
30769,14700
30921,14599
31044,14414
31047,14397
31155,14555
31316,14663
31394,14656
31394,14310
31386,14310
31386,14210
31652,14210
31652,14310
31644,14310
31644,14656
31721,14663
31883,14555
31947,14461
31947,14579
31959,14644
31997,14703
32056,14743
32125,14757
32912,14757
32977,14745
33037,14707
33077,14648
33091,14579
33091,14210
39294,14210
39294,39310
11894,39310
11894,20688
13341,20688
13449,20849
13616,20963
13694,20958
13694,20610
13944,20610
13944,20958
14021,20963
14188,20849
14296,20688
14290,20610
13944,20610
13694,20610
13347,20610
13341,20688
11894,20688
11894,20434
16748,20434
16748,20598
16767,20644
16802,20679
16848,20698
16964,20698
16996,20666
16996,20402
17242,20402
17242,20666
17273,20698
17390,20698
17436,20679
17471,20644
17490,20598
17490,20434
17458,20402
17242,20402
16996,20402
16779,20402
16748,20434
11894,20434
11894,15188
13341,15188
13449,15349
13616,15463
13694,15458
13694,15110
13944,15110
13944,15458
14021,15463
14188,15349
14262,15240
16106,15240
16106,15356
16125,15402
16160,15437
16206,15456
16370,15456
16402,15425
16402,15208
16652,15208
16652,15425
16683,15456
16847,15456
16893,15437
16928,15402
16947,15356
16947,15240
16916,15208
16652,15208
16402,15208
16137,15208
16106,15240
14262,15240
14296,15188
14290,15110
13944,15110
13694,15110
13347,15110
13341,15188
11894,15188
11894,14210
13247,14210
13247,14379
" /> 
</g>
<g style="fill:#FFFFFF; fill-opacity:1.0; 
stroke:#FFFFFF; stroke-width:50; stroke-opacity:1; 
stroke-linecap:round; stroke-linejoin:round;">
</g>
<g style="fill:#FFFFFF; fill-opacity:1.0; 
stroke:#FFFFFF; stroke-width:0; stroke-opacity:1; 
stroke-linecap:round; stroke-linejoin:round;">
<circle cx="37019.1" cy="11985.8" r="433.071" /> 
</g>
<g style="fill:#FFFFFF; fill-opacity:1.0; 
stroke:#FFFFFF; stroke-width:39.3701; stroke-opacity:1; 
stroke-linecap:round; stroke-linejoin:round;">
</g>
<g style="fill:#FFFFFF; fill-opacity:1.0; 
stroke:#FFFFFF; stroke-width:0; stroke-opacity:1; 
stroke-linecap:round; stroke-linejoin:round;">
<circle cx="1919.14" cy="13785.8" r="157.48" /> 
</g>
<g style="fill:#FFFFFF; fill-opacity:1.0; 
stroke:#FFFFFF; stroke-width:39.3701; stroke-opacity:1; 
stroke-linecap:round; stroke-linejoin:round;">
</g>
<g style="fill:#FFFFFF; fill-opacity:1.0; 
stroke:#FFFFFF; stroke-width:0; stroke-opacity:1; 
stroke-linecap:round; stroke-linejoin:round;">
<circle cx="1919.14" cy="12785.8" r="157.48" /> 
</g>
<g style="fill:#FFFFFF; fill-opacity:1.0; 
stroke:#FFFFFF; stroke-width:39.3701; stroke-opacity:1; 
stroke-linecap:round; stroke-linejoin:round;">
</g>
<g style="fill:#FFFFFF; fill-opacity:1.0; 
stroke:#FFFFFF; stroke-width:0; stroke-opacity:1; 
stroke-linecap:round; stroke-linejoin:round;">
<circle cx="1969.14" cy="16835.8" r="157.48" /> 
</g>
<g style="fill:#FFFFFF; fill-opacity:1.0; 
stroke:#FFFFFF; stroke-width:39.3701; stroke-opacity:1; 
stroke-linecap:round; stroke-linejoin:round;">
</g>
<g style="fill:#FFFFFF; fill-opacity:1.0; 
stroke:#FFFFFF; stroke-width:0; stroke-opacity:1; 
stroke-linecap:round; stroke-linejoin:round;">
<circle cx="1969.14" cy="17835.8" r="157.48" /> 
</g>
<g style="fill:#FFFFFF; fill-opacity:1.0; 
stroke:#FFFFFF; stroke-width:39.3701; stroke-opacity:1; 
stroke-linecap:round; stroke-linejoin:round;">
</g>
<g style="fill:#FFFFFF; fill-opacity:1.0; 
stroke:#FFFFFF; stroke-width:0; stroke-opacity:1; 
stroke-linecap:round; stroke-linejoin:round;">
<circle cx="5969.14" cy="16835.8" r="157.48" /> 
</g>
<g style="fill:#FFFFFF; fill-opacity:1.0; 
stroke:#FFFFFF; stroke-width:39.3701; stroke-opacity:1; 
stroke-linecap:round; stroke-linejoin:round;">
</g>
<g style="fill:#FFFFFF; fill-opacity:1.0; 
stroke:#FFFFFF; stroke-width:0; stroke-opacity:1; 
stroke-linecap:round; stroke-linejoin:round;">
<circle cx="5969.14" cy="17835.8" r="157.48" /> 
</g>
<g style="fill:#FFFFFF; fill-opacity:1.0; 
stroke:#FFFFFF; stroke-width:39.3701; stroke-opacity:1; 
stroke-linecap:round; stroke-linejoin:round;">
</g>
<g style="fill:#FFFFFF; fill-opacity:1.0; 
stroke:#FFFFFF; stroke-width:0; stroke-opacity:1; 
stroke-linecap:round; stroke-linejoin:round;">
<circle cx="4919.14" cy="13785.8" r="157.48" /> 
</g>
<g style="fill:#FFFFFF; fill-opacity:1.0; 
stroke:#FFFFFF; stroke-width:39.3701; stroke-opacity:1; 
stroke-linecap:round; stroke-linejoin:round;">
</g>
<g style="fill:#FFFFFF; fill-opacity:1.0; 
stroke:#FFFFFF; stroke-width:0; stroke-opacity:1; 
stroke-linecap:round; stroke-linejoin:round;">
<circle cx="4919.14" cy="12785.8" r="157.48" /> 
</g>
<g style="fill:#FFFFFF; fill-opacity:1.0; 
stroke:#FFFFFF; stroke-width:39.3701; stroke-opacity:1; 
stroke-linecap:round; stroke-linejoin:round;">
</g>
<g style="fill:#FFFFFF; fill-opacity:1.0; 
stroke:#FFFFFF; stroke-width:0; stroke-opacity:1; 
stroke-linecap:round; stroke-linejoin:round;">
<circle cx="1969.14" cy="22235.8" r="157.48" /> 
</g>
<g style="fill:#FFFFFF; fill-opacity:1.0; 
stroke:#FFFFFF; stroke-width:39.3701; stroke-opacity:1; 
stroke-linecap:round; stroke-linejoin:round;">
</g>
<g style="fill:#FFFFFF; fill-opacity:1.0; 
stroke:#FFFFFF; stroke-width:0; stroke-opacity:1; 
stroke-linecap:round; stroke-linejoin:round;">
<circle cx="2969.14" cy="22235.8" r="157.48" /> 
</g>
<g style="fill:#FFFFFF; fill-opacity:1.0; 
stroke:#FFFFFF; stroke-width:39.3701; stroke-opacity:1; 
stroke-linecap:round; stroke-linejoin:round;">
</g>
<g style="fill:#FFFFFF; fill-opacity:1.0; 
stroke:#FFFFFF; stroke-width:0; stroke-opacity:1; 
stroke-linecap:round; stroke-linejoin:round;">
<circle cx="7919.14" cy="25085.8" r="157.48" /> 
</g>
<g style="fill:#FFFFFF; fill-opacity:1.0; 
stroke:#FFFFFF; stroke-width:39.3701; stroke-opacity:1; 
stroke-linecap:round; stroke-linejoin:round;">
</g>
<g style="fill:#FFFFFF; fill-opacity:1.0; 
stroke:#FFFFFF; stroke-width:0; stroke-opacity:1; 
stroke-linecap:round; stroke-linejoin:round;">
<circle cx="7919.14" cy="26085.8" r="157.48" /> 
</g>
<g style="fill:#FFFFFF; fill-opacity:1.0; 
stroke:#FFFFFF; stroke-width:39.3701; stroke-opacity:1; 
stroke-linecap:round; stroke-linejoin:round;">
</g>
<g style="fill:#FFFFFF; fill-opacity:1.0; 
stroke:#FFFFFF; stroke-width:0; stroke-opacity:1; 
stroke-linecap:round; stroke-linejoin:round;">
<circle cx="7919.14" cy="27085.8" r="157.48" /> 
</g>
<g style="fill:#FFFFFF; fill-opacity:1.0; 
stroke:#FFFFFF; stroke-width:39.3701; stroke-opacity:1; 
stroke-linecap:round; stroke-linejoin:round;">
</g>
<g style="fill:#FFFFFF; fill-opacity:1.0; 
stroke:#FFFFFF; stroke-width:0; stroke-opacity:1; 
stroke-linecap:round; stroke-linejoin:round;">
<circle cx="1919.14" cy="25085.8" r="157.48" /> 
</g>
<g style="fill:#FFFFFF; fill-opacity:1.0; 
stroke:#FFFFFF; stroke-width:39.3701; stroke-opacity:1; 
stroke-linecap:round; stroke-linejoin:round;">
</g>
<g style="fill:#FFFFFF; fill-opacity:1.0; 
stroke:#FFFFFF; stroke-width:0; stroke-opacity:1; 
stroke-linecap:round; stroke-linejoin:round;">
<circle cx="1919.14" cy="26085.8" r="157.48" /> 
</g>
<g style="fill:#FFFFFF; fill-opacity:1.0; 
stroke:#FFFFFF; stroke-width:39.3701; stroke-opacity:1; 
stroke-linecap:round; stroke-linejoin:round;">
</g>
<g style="fill:#FFFFFF; fill-opacity:1.0; 
stroke:#FFFFFF; stroke-width:0; stroke-opacity:1; 
stroke-linecap:round; stroke-linejoin:round;">
<circle cx="1919.14" cy="27085.8" r="157.48" /> 
</g>
<g style="fill:#FFFFFF; fill-opacity:1.0; 
stroke:#FFFFFF; stroke-width:39.3701; stroke-opacity:1; 
stroke-linecap:round; stroke-linejoin:round;">
</g>
<g style="fill:#FFFFFF; fill-opacity:1.0; 
stroke:#FFFFFF; stroke-width:0; stroke-opacity:1; 
stroke-linecap:round; stroke-linejoin:round;">
<circle cx="1869.14" cy="31785.8" r="157.48" /> 
</g>
<g style="fill:#FFFFFF; fill-opacity:1.0; 
stroke:#FFFFFF; stroke-width:39.3701; stroke-opacity:1; 
stroke-linecap:round; stroke-linejoin:round;">
</g>
<g style="fill:#FFFFFF; fill-opacity:1.0; 
stroke:#FFFFFF; stroke-width:0; stroke-opacity:1; 
stroke-linecap:round; stroke-linejoin:round;">
<circle cx="1869.14" cy="30785.8" r="157.48" /> 
</g>
<g style="fill:#FFFFFF; fill-opacity:1.0; 
stroke:#FFFFFF; stroke-width:39.3701; stroke-opacity:1; 
stroke-linecap:round; stroke-linejoin:round;">
</g>
<g style="fill:#FFFFFF; fill-opacity:1.0; 
stroke:#FFFFFF; stroke-width:0; stroke-opacity:1; 
stroke-linecap:round; stroke-linejoin:round;">
<circle cx="1869.14" cy="29785.8" r="157.48" /> 
</g>
<g style="fill:#FFFFFF; fill-opacity:1.0; 
stroke:#FFFFFF; stroke-width:39.3701; stroke-opacity:1; 
stroke-linecap:round; stroke-linejoin:round;">
</g>
<g style="fill:#FFFFFF; fill-opacity:1.0; 
stroke:#FFFFFF; stroke-width:0; stroke-opacity:1; 
stroke-linecap:round; stroke-linejoin:round;">
<circle cx="1869.14" cy="8385.83" r="157.48" /> 
</g>
<g style="fill:#FFFFFF; fill-opacity:1.0; 
stroke:#FFFFFF; stroke-width:39.3701; stroke-opacity:1; 
stroke-linecap:round; stroke-linejoin:round;">
</g>
<g style="fill:#FFFFFF; fill-opacity:1.0; 
stroke:#FFFFFF; stroke-width:0; stroke-opacity:1; 
stroke-linecap:round; stroke-linejoin:round;">
<circle cx="1869.14" cy="9385.83" r="157.48" /> 
</g>
<g style="fill:#FFFFFF; fill-opacity:1.0; 
stroke:#FFFFFF; stroke-width:39.3701; stroke-opacity:1; 
stroke-linecap:round; stroke-linejoin:round;">
</g>
<g style="fill:#FFFFFF; fill-opacity:1.0; 
stroke:#FFFFFF; stroke-width:0; stroke-opacity:1; 
stroke-linecap:round; stroke-linejoin:round;">
<circle cx="4869.14" cy="8385.83" r="157.48" /> 
</g>
<g style="fill:#FFFFFF; fill-opacity:1.0; 
stroke:#FFFFFF; stroke-width:39.3701; stroke-opacity:1; 
stroke-linecap:round; stroke-linejoin:round;">
</g>
<g style="fill:#FFFFFF; fill-opacity:1.0; 
stroke:#FFFFFF; stroke-width:0; stroke-opacity:1; 
stroke-linecap:round; stroke-linejoin:round;">
<circle cx="4869.14" cy="9385.83" r="157.48" /> 
</g>
<g style="fill:#FFFFFF; fill-opacity:1.0; 
stroke:#FFFFFF; stroke-width:39.3701; stroke-opacity:1; 
stroke-linecap:round; stroke-linejoin:round;">
</g>
<g style="fill:#FFFFFF; fill-opacity:1.0; 
stroke:#FFFFFF; stroke-width:0; stroke-opacity:1; 
stroke-linecap:round; stroke-linejoin:round;">
<circle cx="13819.1" cy="19485.8" r="157.48" /> 
</g>
<g style="fill:#FFFFFF; fill-opacity:1.0; 
stroke:#FFFFFF; stroke-width:39.3701; stroke-opacity:1; 
stroke-linecap:round; stroke-linejoin:round;">
</g>
<g style="fill:#FFFFFF; fill-opacity:1.0; 
stroke:#FFFFFF; stroke-width:0; stroke-opacity:1; 
stroke-linecap:round; stroke-linejoin:round;">
<circle cx="13819.1" cy="20485.8" r="157.48" /> 
</g>
<g style="fill:#FFFFFF; fill-opacity:1.0; 
stroke:#FFFFFF; stroke-width:39.3701; stroke-opacity:1; 
stroke-linecap:round; stroke-linejoin:round;">
</g>
<g style="fill:#FFFFFF; fill-opacity:1.0; 
stroke:#FFFFFF; stroke-width:0; stroke-opacity:1; 
stroke-linecap:round; stroke-linejoin:round;">
<circle cx="25019.1" cy="9085.83" r="157.48" /> 
</g>
<g style="fill:#FFFFFF; fill-opacity:1.0; 
stroke:#FFFFFF; stroke-width:39.3701; stroke-opacity:1; 
stroke-linecap:round; stroke-linejoin:round;">
</g>
<g style="fill:#FFFFFF; fill-opacity:1.0; 
stroke:#FFFFFF; stroke-width:0; stroke-opacity:1; 
stroke-linecap:round; stroke-linejoin:round;">
<circle cx="26019.1" cy="9085.83" r="157.48" /> 
</g>
<g style="fill:#FFFFFF; fill-opacity:1.0; 
stroke:#FFFFFF; stroke-width:39.3701; stroke-opacity:1; 
stroke-linecap:round; stroke-linejoin:round;">
</g>
<g style="fill:#FFFFFF; fill-opacity:1.0; 
stroke:#FFFFFF; stroke-width:0; stroke-opacity:1; 
stroke-linecap:round; stroke-linejoin:round;">
<circle cx="13819.1" cy="13985.8" r="157.48" /> 
</g>
<g style="fill:#FFFFFF; fill-opacity:1.0; 
stroke:#FFFFFF; stroke-width:39.3701; stroke-opacity:1; 
stroke-linecap:round; stroke-linejoin:round;">
</g>
<g style="fill:#FFFFFF; fill-opacity:1.0; 
stroke:#FFFFFF; stroke-width:0; stroke-opacity:1; 
stroke-linecap:round; stroke-linejoin:round;">
<circle cx="13819.1" cy="14985.8" r="157.48" /> 
</g>
<g style="fill:#FFFFFF; fill-opacity:1.0; 
stroke:#FFFFFF; stroke-width:39.3701; stroke-opacity:1; 
stroke-linecap:round; stroke-linejoin:round;">
</g>
<g style="fill:#FFFFFF; fill-opacity:1.0; 
stroke:#FFFFFF; stroke-width:0; stroke-opacity:1; 
stroke-linecap:round; stroke-linejoin:round;">
<circle cx="30519.1" cy="16185.8" r="157.48" /> 
</g>
<g style="fill:#FFFFFF; fill-opacity:1.0; 
stroke:#FFFFFF; stroke-width:39.3701; stroke-opacity:1; 
stroke-linecap:round; stroke-linejoin:round;">
</g>
<g style="fill:#FFFFFF; fill-opacity:1.0; 
stroke:#FFFFFF; stroke-width:0; stroke-opacity:1; 
stroke-linecap:round; stroke-linejoin:round;">
<circle cx="31519.1" cy="16185.8" r="157.48" /> 
</g>
<g style="fill:#FFFFFF; fill-opacity:1.0; 
stroke:#FFFFFF; stroke-width:39.3701; stroke-opacity:1; 
stroke-linecap:round; stroke-linejoin:round;">
</g>
<g style="fill:#FFFFFF; fill-opacity:1.0; 
stroke:#FFFFFF; stroke-width:0; stroke-opacity:1; 
stroke-linecap:round; stroke-linejoin:round;">
<circle cx="32519.1" cy="14185.8" r="157.48" /> 
</g>
<g style="fill:#FFFFFF; fill-opacity:1.0; 
stroke:#FFFFFF; stroke-width:39.3701; stroke-opacity:1; 
stroke-linecap:round; stroke-linejoin:round;">
</g>
<g style="fill:#FFFFFF; fill-opacity:1.0; 
stroke:#FFFFFF; stroke-width:0; stroke-opacity:1; 
stroke-linecap:round; stroke-linejoin:round;">
<circle cx="31519.1" cy="14185.8" r="157.48" /> 
</g>
<g style="fill:#FFFFFF; fill-opacity:1.0; 
stroke:#FFFFFF; stroke-width:39.3701; stroke-opacity:1; 
stroke-linecap:round; stroke-linejoin:round;">
</g>
<g style="fill:#FFFFFF; fill-opacity:1.0; 
stroke:#FFFFFF; stroke-width:0; stroke-opacity:1; 
stroke-linecap:round; stroke-linejoin:round;">
<circle cx="30519.1" cy="14185.8" r="157.48" /> 
</g>
<g style="fill:#FFFFFF; fill-opacity:1.0; 
stroke:#FFFFFF; stroke-width:39.3701; stroke-opacity:1; 
stroke-linecap:round; stroke-linejoin:round;">
</g>
<g style="fill:#FFFFFF; fill-opacity:1.0; 
stroke:#FFFFFF; stroke-width:0; stroke-opacity:1; 
stroke-linecap:round; stroke-linejoin:round;">
<circle cx="26019.1" cy="11985.8" r="433.071" /> 
</g>
<g style="fill:#FFFFFF; fill-opacity:1.0; 
stroke:#FFFFFF; stroke-width:39.3701; stroke-opacity:1; 
stroke-linecap:round; stroke-linejoin:round;">
</g>
<g style="fill:#000000; fill-opacity:1.0; 
stroke:#000000; stroke-width:39.3701; stroke-opacity:1; 
stroke-linecap:round; stroke-linejoin:round;">
</g>
<g style="fill:#000000; fill-opacity:1.0; 
stroke:#000000; stroke-width:59.0551; stroke-opacity:1; 
stroke-linecap:round; stroke-linejoin:round;">
</g>
<g style="fill:#000000; fill-opacity:0.0; 
stroke:#000000; stroke-width:59.0551; stroke-opacity:1; 
stroke-linecap:round; stroke-linejoin:round;">
<path d="M869 10385
L869 7385
" />
<path d="M5869 10385
L869 10385
" />
<path d="M5869 7385
L5869 10385
" />
<path d="M869 7385
L5869 7385
" />
<path d="M4869 32785
L869 32785
" />
<path d="M4869 28785
L4869 32785
" />
<path d="M869 28785
L4869 28785
" />
<path d="M869 32785
L869 28785
" />
<path d="M919 28085
L919 24085
" />
<path d="M8919 28085
L919 28085
" />
<path d="M8919 24085
L8919 28085
" />
<path d="M919 24085
L8919 24085
" />
<path d="M969 19735
L969 23035
" />
<path d="M3969 23035
L3969 19735
" />
<path d="M3969 19735
L969 19735
" />
<path d="M969 23035
L3969 23035
" />
<path d="M969 18835
L969 15835
" />
<path d="M6969 18835
L969 18835
" />
<path d="M6969 15835
L6969 18835
" />
<path d="M969 15835
L6969 15835
" />
<path d="M919 11785
L919 14785
" />
<path d="M5919 11785
L919 11785
" />
<path d="M5919 14785
L5919 11785
" />
<path d="M919 14785
L5919 14785
" />
</g> 
</svg>
