<?xml version="1.0" standalone="no"?>
 <!DOCTYPE svg PUBLIC "-//W3C//DTD SVG 1.1//EN" 
 "http://www.w3.org/Graphics/SVG/1.1/DTD/svg11.dtd"> 
<svg xmlns="http://www.w3.org/2000/svg" version="1.1" 
    width="2.48412cm" height="6.61416cm" viewBox="0 0 9780 26040 ">
<title>SVG Picture created as joule_thief_breakout_boards-brd.svg date 2017/10/14 15:02:23 </title>
  <desc>Picture generated by PCBNEW </desc>
<g style="fill:#000000; fill-opacity:1;stroke:#000000; stroke-opacity:1;
stroke-linecap:round; stroke-linejoin:round; "
 transform="translate(0 0) scale(1 1)">
</g>
<g style="fill:#000000; fill-opacity:0.0; 
stroke:#000000; stroke-width:-0.000393701; stroke-opacity:1; 
stroke-linecap:round; stroke-linejoin:round;">
</g>
<g style="fill:#000000; fill-opacity:0.0; 
stroke:#000000; stroke-width:0; stroke-opacity:1; 
stroke-linecap:round; stroke-linejoin:round;">
</g>
<g style="fill:#000000; fill-opacity:1.0; 
stroke:#000000; stroke-width:0; stroke-opacity:1; 
stroke-linecap:round; stroke-linejoin:round;">
<polyline style="fill-rule:evenodd;"
points="3173,18213
3665,18213
3665,18804
3173,18804
3173,18213
" /> 
<polyline style="fill-rule:evenodd;"
points="3173,19198
3665,19198
3665,19788
3173,19788
3173,19198
" /> 
<polyline style="fill-rule:evenodd;"
points="2162,13875
2162,13426
2280,13426
2280,13875
2162,13875
" /> 
<polyline style="fill-rule:evenodd;"
points="2457,13875
2457,13426
2859,13426
2859,13875
2457,13875
" /> 
<polyline style="fill-rule:evenodd;"
points="1926,13808
1926,13493
2162,13493
2162,13808
1926,13808
" /> 
<polyline style="fill-rule:evenodd;"
points="2859,13808
2859,13493
3107,13493
3107,13808
2859,13808
" /> 
<polyline style="fill-rule:evenodd;"
points="6675,19327
6163,19327
6163,18737
6675,18737
6675,19327
" /> 
<polyline style="fill-rule:evenodd;"
points="6675,18264
6163,18264
6163,17674
6675,17674
6675,18264
" /> 
<polyline style="fill-rule:evenodd;"
points="4417,17662
4673,17662
4673,18276
4417,18276
4417,17662
" /> 
<polyline style="fill-rule:evenodd;"
points="4791,17662
5047,17662
5047,18276
4791,18276
4791,17662
" /> 
<polyline style="fill-rule:evenodd;"
points="5165,17662
5421,17662
5421,18276
5165,18276
5165,17662
" /> 
<polyline style="fill-rule:evenodd;"
points="5165,18725
5421,18725
5421,19339
5165,19339
5165,18725
" /> 
<polyline style="fill-rule:evenodd;"
points="4417,18725
4673,18725
4673,19339
4417,19339
4417,18725
" /> 
<polyline style="fill-rule:evenodd;"
points="2312,6307
2312,7094
1525,7094
1525,6307
2312,6307
" /> 
</g>
<g style="fill:#000000; fill-opacity:1.0; 
stroke:#000000; stroke-width:787.402; stroke-opacity:1; 
stroke-linecap:round; stroke-linejoin:round;">
</g>
<g style="fill:#000000; fill-opacity:0.0; 
stroke:#000000; stroke-width:787.402; stroke-opacity:1; 
stroke-linecap:round; stroke-linejoin:round;">
<path d="M1919 5701
L1919 5701
" />
</g>
<g style="fill:#000000; fill-opacity:0.0; 
stroke:#000000; stroke-width:0; stroke-opacity:1; 
stroke-linecap:round; stroke-linejoin:round;">
</g>
<g style="fill:#000000; fill-opacity:1.0; 
stroke:#000000; stroke-width:0; stroke-opacity:1; 
stroke-linecap:round; stroke-linejoin:round;">
<polyline style="fill-rule:evenodd;"
points="1575,10144
1575,9357
2362,9357
2362,10144
1575,10144
" /> 
</g>
<g style="fill:#000000; fill-opacity:1.0; 
stroke:#000000; stroke-width:787.402; stroke-opacity:1; 
stroke-linecap:round; stroke-linejoin:round;">
</g>
<g style="fill:#000000; fill-opacity:0.0; 
stroke:#000000; stroke-width:787.402; stroke-opacity:1; 
stroke-linecap:round; stroke-linejoin:round;">
<path d="M1969 10751
L1969 10751
" />
</g>
<g style="fill:#000000; fill-opacity:0.0; 
stroke:#000000; stroke-width:0; stroke-opacity:1; 
stroke-linecap:round; stroke-linejoin:round;">
</g>
<g style="fill:#000000; fill-opacity:1.0; 
stroke:#000000; stroke-width:0; stroke-opacity:1; 
stroke-linecap:round; stroke-linejoin:round;">
<polyline style="fill-rule:evenodd;"
points="5575,10144
5575,9357
6362,9357
6362,10144
5575,10144
" /> 
</g>
<g style="fill:#000000; fill-opacity:1.0; 
stroke:#000000; stroke-width:787.402; stroke-opacity:1; 
stroke-linecap:round; stroke-linejoin:round;">
</g>
<g style="fill:#000000; fill-opacity:0.0; 
stroke:#000000; stroke-width:787.402; stroke-opacity:1; 
stroke-linecap:round; stroke-linejoin:round;">
<path d="M5969 10751
L5969 10751
" />
</g>
<g style="fill:#000000; fill-opacity:0.0; 
stroke:#000000; stroke-width:0; stroke-opacity:1; 
stroke-linecap:round; stroke-linejoin:round;">
</g>
<g style="fill:#000000; fill-opacity:1.0; 
stroke:#000000; stroke-width:0; stroke-opacity:1; 
stroke-linecap:round; stroke-linejoin:round;">
<polyline style="fill-rule:evenodd;"
points="5312,6307
5312,7094
4525,7094
4525,6307
5312,6307
" /> 
</g>
<g style="fill:#000000; fill-opacity:1.0; 
stroke:#000000; stroke-width:787.402; stroke-opacity:1; 
stroke-linecap:round; stroke-linejoin:round;">
</g>
<g style="fill:#000000; fill-opacity:0.0; 
stroke:#000000; stroke-width:787.402; stroke-opacity:1; 
stroke-linecap:round; stroke-linejoin:round;">
<path d="M4919 5701
L4919 5701
" />
</g>
<g style="fill:#000000; fill-opacity:0.0; 
stroke:#000000; stroke-width:0; stroke-opacity:1; 
stroke-linecap:round; stroke-linejoin:round;">
</g>
<g style="fill:#000000; fill-opacity:1.0; 
stroke:#000000; stroke-width:0; stroke-opacity:1; 
stroke-linecap:round; stroke-linejoin:round;">
<polyline style="fill-rule:evenodd;"
points="2362,15544
1575,15544
1575,14757
2362,14757
2362,15544
" /> 
</g>
<g style="fill:#000000; fill-opacity:1.0; 
stroke:#000000; stroke-width:787.402; stroke-opacity:1; 
stroke-linecap:round; stroke-linejoin:round;">
</g>
<g style="fill:#000000; fill-opacity:0.0; 
stroke:#000000; stroke-width:787.402; stroke-opacity:1; 
stroke-linecap:round; stroke-linejoin:round;">
<path d="M2969 15151
L2969 15151
" />
</g>
<g style="fill:#000000; fill-opacity:0.0; 
stroke:#000000; stroke-width:0; stroke-opacity:1; 
stroke-linecap:round; stroke-linejoin:round;">
</g>
<g style="fill:#000000; fill-opacity:1.0; 
stroke:#000000; stroke-width:0; stroke-opacity:1; 
stroke-linecap:round; stroke-linejoin:round;">
<polyline style="fill-rule:evenodd;"
points="7525,18394
7525,17607
8312,17607
8312,18394
7525,18394
" /> 
</g>
<g style="fill:#000000; fill-opacity:1.0; 
stroke:#000000; stroke-width:787.402; stroke-opacity:1; 
stroke-linecap:round; stroke-linejoin:round;">
</g>
<g style="fill:#000000; fill-opacity:0.0; 
stroke:#000000; stroke-width:787.402; stroke-opacity:1; 
stroke-linecap:round; stroke-linejoin:round;">
<path d="M7919 19001
L7919 19001
" />
<path d="M7919 20001
L7919 20001
" />
</g>
<g style="fill:#000000; fill-opacity:0.0; 
stroke:#000000; stroke-width:0; stroke-opacity:1; 
stroke-linecap:round; stroke-linejoin:round;">
</g>
<g style="fill:#000000; fill-opacity:1.0; 
stroke:#000000; stroke-width:0; stroke-opacity:1; 
stroke-linecap:round; stroke-linejoin:round;">
<polyline style="fill-rule:evenodd;"
points="1525,18394
1525,17607
2312,17607
2312,18394
1525,18394
" /> 
</g>
<g style="fill:#000000; fill-opacity:1.0; 
stroke:#000000; stroke-width:787.402; stroke-opacity:1; 
stroke-linecap:round; stroke-linejoin:round;">
</g>
<g style="fill:#000000; fill-opacity:0.0; 
stroke:#000000; stroke-width:787.402; stroke-opacity:1; 
stroke-linecap:round; stroke-linejoin:round;">
<path d="M1919 19001
L1919 19001
" />
<path d="M1919 20001
L1919 20001
" />
</g>
<g style="fill:#000000; fill-opacity:0.0; 
stroke:#000000; stroke-width:0; stroke-opacity:1; 
stroke-linecap:round; stroke-linejoin:round;">
</g>
<g style="fill:#000000; fill-opacity:1.0; 
stroke:#000000; stroke-width:0; stroke-opacity:1; 
stroke-linecap:round; stroke-linejoin:round;">
<polyline style="fill-rule:evenodd;"
points="2907,6447
2907,6289
3202,6289
3202,6447
2907,6447
" /> 
<polyline style="fill-rule:evenodd;"
points="3635,6447
3635,6289
3930,6289
3930,6447
3635,6447
" /> 
<polyline style="fill-rule:evenodd;"
points="3635,6112
3635,5955
3930,5955
3930,6112
3635,6112
" /> 
<polyline style="fill-rule:evenodd;"
points="2907,6112
2907,5955
3202,5955
3202,6112
2907,6112
" /> 
<polyline style="fill-rule:evenodd;"
points="2945,10074
2945,9542
3378,9542
3378,10074
2945,10074
" /> 
<polyline style="fill-rule:evenodd;"
points="4559,10074
4559,9542
4992,9542
4992,10074
4559,10074
" /> 
<polyline style="fill-rule:evenodd;"
points="4559,10959
4559,10428
4992,10428
4992,10959
4559,10959
" /> 
<polyline style="fill-rule:evenodd;"
points="2945,10959
2945,10428
3378,10428
3378,10959
2945,10959
" /> 
<polyline style="fill-rule:evenodd;"
points="3298,24232
3298,23917
3652,23917
3652,24232
3298,24232
" /> 
<polyline style="fill-rule:evenodd;"
points="3298,23484
3298,23169
3652,23169
3652,23484
3298,23484
" /> 
<polyline style="fill-rule:evenodd;"
points="4085,23858
4085,23543
4440,23543
4440,23858
4085,23858
" /> 
<polyline style="fill-rule:evenodd;"
points="2262,24307
2262,25094
1475,25094
1475,24307
2262,24307
" /> 
</g>
<g style="fill:#000000; fill-opacity:1.0; 
stroke:#000000; stroke-width:787.402; stroke-opacity:1; 
stroke-linecap:round; stroke-linejoin:round;">
</g>
<g style="fill:#000000; fill-opacity:0.0; 
stroke:#000000; stroke-width:787.402; stroke-opacity:1; 
stroke-linecap:round; stroke-linejoin:round;">
<path d="M1869 23701
L1869 23701
" />
<path d="M1869 22701
L1869 22701
" />
</g>
<g style="fill:#000000; fill-opacity:0.0; 
stroke:#000000; stroke-width:0; stroke-opacity:1; 
stroke-linecap:round; stroke-linejoin:round;">
</g>
<g style="fill:#000000; fill-opacity:1.0; 
stroke:#000000; stroke-width:0; stroke-opacity:1; 
stroke-linecap:round; stroke-linejoin:round;">
<polyline style="fill-rule:evenodd;"
points="2640,1722
2640,1486
2995,1486
2995,1722
2640,1722
" /> 
<polyline style="fill-rule:evenodd;"
points="3743,1722
3743,1486
4097,1486
4097,1722
3743,1722
" /> 
<polyline style="fill-rule:evenodd;"
points="3743,2116
3743,1879
4097,1879
4097,2116
3743,2116
" /> 
<polyline style="fill-rule:evenodd;"
points="2640,2116
2640,1879
2995,1879
2995,2116
2640,2116
" /> 
<polyline style="fill-rule:evenodd;"
points="1475,1694
1475,907
2262,907
2262,1694
1475,1694
" /> 
</g>
<g style="fill:#000000; fill-opacity:1.0; 
stroke:#000000; stroke-width:787.402; stroke-opacity:1; 
stroke-linecap:round; stroke-linejoin:round;">
</g>
<g style="fill:#000000; fill-opacity:0.0; 
stroke:#000000; stroke-width:787.402; stroke-opacity:1; 
stroke-linecap:round; stroke-linejoin:round;">
<path d="M1869 2301
L1869 2301
" />
</g>
<g style="fill:#000000; fill-opacity:0.0; 
stroke:#000000; stroke-width:0; stroke-opacity:1; 
stroke-linecap:round; stroke-linejoin:round;">
</g>
<g style="fill:#000000; fill-opacity:1.0; 
stroke:#000000; stroke-width:0; stroke-opacity:1; 
stroke-linecap:round; stroke-linejoin:round;">
<polyline style="fill-rule:evenodd;"
points="4475,1694
4475,907
5262,907
5262,1694
4475,1694
" /> 
</g>
<g style="fill:#000000; fill-opacity:1.0; 
stroke:#000000; stroke-width:787.402; stroke-opacity:1; 
stroke-linecap:round; stroke-linejoin:round;">
</g>
<g style="fill:#000000; fill-opacity:0.0; 
stroke:#000000; stroke-width:787.402; stroke-opacity:1; 
stroke-linecap:round; stroke-linejoin:round;">
<path d="M4869 2301
L4869 2301
" />
</g>
<g style="fill:#000000; fill-opacity:0.0; 
stroke:#000000; stroke-width:150; stroke-opacity:1; 
stroke-linecap:round; stroke-linejoin:round;">
<path d="M7919 20001
L5169 20001
" />
<path d="M4919 19751
L4919 18451
" />
<path d="M5169 20001
L4919 19751
" />
<path d="M3419 18509
L4861 18509
" />
<path d="M4919 18451
L4919 17969
" />
<path d="M4861 18509
L4919 18451
" />
<path d="M1919 19001
L2927 19001
" />
<path d="M2927 19001
L3419 18509
" />
<path d="M3419 19493
L4084 19493
" />
<path d="M4084 19493
L4545 19032
" />
<path d="M1919 20001
L2911 20001
" />
<path d="M2911 20001
L3419 19493
" />
<path d="M1969 15151
L1969 13844
" />
<path d="M1969 13844
L2162 13651
" />
<path d="M2969 15151
L2969 13761
" />
<path d="M2969 13761
L2859 13651
" />
<path d="M1969 9751
L3104 9751
" />
<path d="M3104 9751
L3162 9808
" />
<path d="M5969 9751
L4833 9751
" />
<path d="M4833 9751
L4776 9808
" />
<path d="M5969 10751
L4833 10751
" />
<path d="M4833 10751
L4776 10694
" />
<path d="M1969 10751
L3104 10751
" />
<path d="M3104 10751
L3162 10694
" />
<path d="M1919 6701
L2722 6701
" />
<path d="M2722 6701
L3054 6368
" />
<path d="M4919 6701
L4115 6701
" />
<path d="M4115 6701
L3783 6368
" />
<path d="M4919 5701
L4115 5701
" />
<path d="M4115 5701
L3783 6033
" />
<path d="M1919 5701
L2722 5701
" />
<path d="M2722 5701
L3054 6033
" />
<path d="M7919 18001
L6450 18001
" />
<path d="M6450 18001
L6419 17969
" />
<path d="M6419 17969
L5293 17969
" />
<path d="M5293 19032
L6419 19032
" />
<path d="M6419 19032
L6450 19001
" />
<path d="M6450 19001
L7919 19001
" />
<path d="M4545 17969
L1950 17969
" />
<path d="M1950 17969
L1919 18001
" />
<path d="M1869 24701
L3869 24701
" />
<path d="M4262 24307
L4262 23701
" />
<path d="M3869 24701
L4262 24307
" />
<path d="M1869 23701
L3101 23701
" />
<path d="M3101 23701
L3475 24075
" />
<path d="M1869 22701
L2849 22701
" />
<path d="M2849 22701
L3475 23327
" />
<path d="M1869 1301
L2514 1301
" />
<path d="M2514 1301
L2817 1604
" />
<path d="M4869 1301
L4223 1301
" />
<path d="M4223 1301
L3920 1604
" />
<path d="M4869 2301
L4223 2301
" />
<path d="M4223 2301
L3920 1998
" />
<path d="M1869 2301
L2514 2301
" />
<path d="M2514 2301
L2817 1998
" />
</g>
<g style="fill:#FFFFFF; fill-opacity:0.0; 
stroke:#FFFFFF; stroke-width:150; stroke-opacity:1; 
stroke-linecap:round; stroke-linejoin:round;">
</g>
<g style="fill:#FFFFFF; fill-opacity:1.0; 
stroke:#FFFFFF; stroke-width:0; stroke-opacity:1; 
stroke-linecap:round; stroke-linejoin:round;">
<circle cx="1919.14" cy="6701.18" r="157.48" /> 
</g>
<g style="fill:#FFFFFF; fill-opacity:1.0; 
stroke:#FFFFFF; stroke-width:39.3701; stroke-opacity:1; 
stroke-linecap:round; stroke-linejoin:round;">
</g>
<g style="fill:#FFFFFF; fill-opacity:1.0; 
stroke:#FFFFFF; stroke-width:0; stroke-opacity:1; 
stroke-linecap:round; stroke-linejoin:round;">
<circle cx="1919.14" cy="5701.18" r="157.48" /> 
</g>
<g style="fill:#FFFFFF; fill-opacity:1.0; 
stroke:#FFFFFF; stroke-width:39.3701; stroke-opacity:1; 
stroke-linecap:round; stroke-linejoin:round;">
</g>
<g style="fill:#FFFFFF; fill-opacity:1.0; 
stroke:#FFFFFF; stroke-width:0; stroke-opacity:1; 
stroke-linecap:round; stroke-linejoin:round;">
<circle cx="1969.14" cy="9751.18" r="157.48" /> 
</g>
<g style="fill:#FFFFFF; fill-opacity:1.0; 
stroke:#FFFFFF; stroke-width:39.3701; stroke-opacity:1; 
stroke-linecap:round; stroke-linejoin:round;">
</g>
<g style="fill:#FFFFFF; fill-opacity:1.0; 
stroke:#FFFFFF; stroke-width:0; stroke-opacity:1; 
stroke-linecap:round; stroke-linejoin:round;">
<circle cx="1969.14" cy="10751.2" r="157.48" /> 
</g>
<g style="fill:#FFFFFF; fill-opacity:1.0; 
stroke:#FFFFFF; stroke-width:39.3701; stroke-opacity:1; 
stroke-linecap:round; stroke-linejoin:round;">
</g>
<g style="fill:#FFFFFF; fill-opacity:1.0; 
stroke:#FFFFFF; stroke-width:0; stroke-opacity:1; 
stroke-linecap:round; stroke-linejoin:round;">
<circle cx="5969.14" cy="9751.18" r="157.48" /> 
</g>
<g style="fill:#FFFFFF; fill-opacity:1.0; 
stroke:#FFFFFF; stroke-width:39.3701; stroke-opacity:1; 
stroke-linecap:round; stroke-linejoin:round;">
</g>
<g style="fill:#FFFFFF; fill-opacity:1.0; 
stroke:#FFFFFF; stroke-width:0; stroke-opacity:1; 
stroke-linecap:round; stroke-linejoin:round;">
<circle cx="5969.14" cy="10751.2" r="157.48" /> 
</g>
<g style="fill:#FFFFFF; fill-opacity:1.0; 
stroke:#FFFFFF; stroke-width:39.3701; stroke-opacity:1; 
stroke-linecap:round; stroke-linejoin:round;">
</g>
<g style="fill:#FFFFFF; fill-opacity:1.0; 
stroke:#FFFFFF; stroke-width:0; stroke-opacity:1; 
stroke-linecap:round; stroke-linejoin:round;">
<circle cx="4919.14" cy="6701.18" r="157.48" /> 
</g>
<g style="fill:#FFFFFF; fill-opacity:1.0; 
stroke:#FFFFFF; stroke-width:39.3701; stroke-opacity:1; 
stroke-linecap:round; stroke-linejoin:round;">
</g>
<g style="fill:#FFFFFF; fill-opacity:1.0; 
stroke:#FFFFFF; stroke-width:0; stroke-opacity:1; 
stroke-linecap:round; stroke-linejoin:round;">
<circle cx="4919.14" cy="5701.18" r="157.48" /> 
</g>
<g style="fill:#FFFFFF; fill-opacity:1.0; 
stroke:#FFFFFF; stroke-width:39.3701; stroke-opacity:1; 
stroke-linecap:round; stroke-linejoin:round;">
</g>
<g style="fill:#FFFFFF; fill-opacity:1.0; 
stroke:#FFFFFF; stroke-width:0; stroke-opacity:1; 
stroke-linecap:round; stroke-linejoin:round;">
<circle cx="1969.14" cy="15151.2" r="157.48" /> 
</g>
<g style="fill:#FFFFFF; fill-opacity:1.0; 
stroke:#FFFFFF; stroke-width:39.3701; stroke-opacity:1; 
stroke-linecap:round; stroke-linejoin:round;">
</g>
<g style="fill:#FFFFFF; fill-opacity:1.0; 
stroke:#FFFFFF; stroke-width:0; stroke-opacity:1; 
stroke-linecap:round; stroke-linejoin:round;">
<circle cx="2969.14" cy="15151.2" r="157.48" /> 
</g>
<g style="fill:#FFFFFF; fill-opacity:1.0; 
stroke:#FFFFFF; stroke-width:39.3701; stroke-opacity:1; 
stroke-linecap:round; stroke-linejoin:round;">
</g>
<g style="fill:#FFFFFF; fill-opacity:1.0; 
stroke:#FFFFFF; stroke-width:0; stroke-opacity:1; 
stroke-linecap:round; stroke-linejoin:round;">
<circle cx="7919.14" cy="18001.2" r="157.48" /> 
</g>
<g style="fill:#FFFFFF; fill-opacity:1.0; 
stroke:#FFFFFF; stroke-width:39.3701; stroke-opacity:1; 
stroke-linecap:round; stroke-linejoin:round;">
</g>
<g style="fill:#FFFFFF; fill-opacity:1.0; 
stroke:#FFFFFF; stroke-width:0; stroke-opacity:1; 
stroke-linecap:round; stroke-linejoin:round;">
<circle cx="7919.14" cy="19001.2" r="157.48" /> 
</g>
<g style="fill:#FFFFFF; fill-opacity:1.0; 
stroke:#FFFFFF; stroke-width:39.3701; stroke-opacity:1; 
stroke-linecap:round; stroke-linejoin:round;">
</g>
<g style="fill:#FFFFFF; fill-opacity:1.0; 
stroke:#FFFFFF; stroke-width:0; stroke-opacity:1; 
stroke-linecap:round; stroke-linejoin:round;">
<circle cx="7919.14" cy="20001.2" r="157.48" /> 
</g>
<g style="fill:#FFFFFF; fill-opacity:1.0; 
stroke:#FFFFFF; stroke-width:39.3701; stroke-opacity:1; 
stroke-linecap:round; stroke-linejoin:round;">
</g>
<g style="fill:#FFFFFF; fill-opacity:1.0; 
stroke:#FFFFFF; stroke-width:0; stroke-opacity:1; 
stroke-linecap:round; stroke-linejoin:round;">
<circle cx="1919.14" cy="18001.2" r="157.48" /> 
</g>
<g style="fill:#FFFFFF; fill-opacity:1.0; 
stroke:#FFFFFF; stroke-width:39.3701; stroke-opacity:1; 
stroke-linecap:round; stroke-linejoin:round;">
</g>
<g style="fill:#FFFFFF; fill-opacity:1.0; 
stroke:#FFFFFF; stroke-width:0; stroke-opacity:1; 
stroke-linecap:round; stroke-linejoin:round;">
<circle cx="1919.14" cy="19001.2" r="157.48" /> 
</g>
<g style="fill:#FFFFFF; fill-opacity:1.0; 
stroke:#FFFFFF; stroke-width:39.3701; stroke-opacity:1; 
stroke-linecap:round; stroke-linejoin:round;">
</g>
<g style="fill:#FFFFFF; fill-opacity:1.0; 
stroke:#FFFFFF; stroke-width:0; stroke-opacity:1; 
stroke-linecap:round; stroke-linejoin:round;">
<circle cx="1919.14" cy="20001.2" r="157.48" /> 
</g>
<g style="fill:#FFFFFF; fill-opacity:1.0; 
stroke:#FFFFFF; stroke-width:39.3701; stroke-opacity:1; 
stroke-linecap:round; stroke-linejoin:round;">
</g>
<g style="fill:#FFFFFF; fill-opacity:1.0; 
stroke:#FFFFFF; stroke-width:0; stroke-opacity:1; 
stroke-linecap:round; stroke-linejoin:round;">
<circle cx="1869.14" cy="24701.2" r="157.48" /> 
</g>
<g style="fill:#FFFFFF; fill-opacity:1.0; 
stroke:#FFFFFF; stroke-width:39.3701; stroke-opacity:1; 
stroke-linecap:round; stroke-linejoin:round;">
</g>
<g style="fill:#FFFFFF; fill-opacity:1.0; 
stroke:#FFFFFF; stroke-width:0; stroke-opacity:1; 
stroke-linecap:round; stroke-linejoin:round;">
<circle cx="1869.14" cy="23701.2" r="157.48" /> 
</g>
<g style="fill:#FFFFFF; fill-opacity:1.0; 
stroke:#FFFFFF; stroke-width:39.3701; stroke-opacity:1; 
stroke-linecap:round; stroke-linejoin:round;">
</g>
<g style="fill:#FFFFFF; fill-opacity:1.0; 
stroke:#FFFFFF; stroke-width:0; stroke-opacity:1; 
stroke-linecap:round; stroke-linejoin:round;">
<circle cx="1869.14" cy="22701.2" r="157.48" /> 
</g>
<g style="fill:#FFFFFF; fill-opacity:1.0; 
stroke:#FFFFFF; stroke-width:39.3701; stroke-opacity:1; 
stroke-linecap:round; stroke-linejoin:round;">
</g>
<g style="fill:#FFFFFF; fill-opacity:1.0; 
stroke:#FFFFFF; stroke-width:0; stroke-opacity:1; 
stroke-linecap:round; stroke-linejoin:round;">
<circle cx="1869.14" cy="1301.18" r="157.48" /> 
</g>
<g style="fill:#FFFFFF; fill-opacity:1.0; 
stroke:#FFFFFF; stroke-width:39.3701; stroke-opacity:1; 
stroke-linecap:round; stroke-linejoin:round;">
</g>
<g style="fill:#FFFFFF; fill-opacity:1.0; 
stroke:#FFFFFF; stroke-width:0; stroke-opacity:1; 
stroke-linecap:round; stroke-linejoin:round;">
<circle cx="1869.14" cy="2301.18" r="157.48" /> 
</g>
<g style="fill:#FFFFFF; fill-opacity:1.0; 
stroke:#FFFFFF; stroke-width:39.3701; stroke-opacity:1; 
stroke-linecap:round; stroke-linejoin:round;">
</g>
<g style="fill:#FFFFFF; fill-opacity:1.0; 
stroke:#FFFFFF; stroke-width:0; stroke-opacity:1; 
stroke-linecap:round; stroke-linejoin:round;">
<circle cx="4869.14" cy="1301.18" r="157.48" /> 
</g>
<g style="fill:#FFFFFF; fill-opacity:1.0; 
stroke:#FFFFFF; stroke-width:39.3701; stroke-opacity:1; 
stroke-linecap:round; stroke-linejoin:round;">
</g>
<g style="fill:#FFFFFF; fill-opacity:1.0; 
stroke:#FFFFFF; stroke-width:0; stroke-opacity:1; 
stroke-linecap:round; stroke-linejoin:round;">
<circle cx="4869.14" cy="2301.18" r="157.48" /> 
</g>
<g style="fill:#FFFFFF; fill-opacity:1.0; 
stroke:#FFFFFF; stroke-width:39.3701; stroke-opacity:1; 
stroke-linecap:round; stroke-linejoin:round;">
</g>
<g style="fill:#000000; fill-opacity:1.0; 
stroke:#000000; stroke-width:39.3701; stroke-opacity:1; 
stroke-linecap:round; stroke-linejoin:round;">
</g>
<g style="fill:#000000; fill-opacity:1.0; 
stroke:#000000; stroke-width:59.0551; stroke-opacity:1; 
stroke-linecap:round; stroke-linejoin:round;">
</g>
<g style="fill:#000000; fill-opacity:0.0; 
stroke:#000000; stroke-width:59.0551; stroke-opacity:1; 
stroke-linecap:round; stroke-linejoin:round;">
<path d="M869 3301
L869 301
" />
<path d="M5869 3301
L869 3301
" />
<path d="M5869 301
L5869 3301
" />
<path d="M869 301
L5869 301
" />
<path d="M4869 25701
L869 25701
" />
<path d="M4869 21701
L4869 25701
" />
<path d="M869 21701
L4869 21701
" />
<path d="M869 25701
L869 21701
" />
<path d="M919 21001
L919 17001
" />
<path d="M8919 21001
L919 21001
" />
<path d="M8919 17001
L8919 21001
" />
<path d="M919 17001
L8919 17001
" />
<path d="M969 12651
L969 15951
" />
<path d="M3969 15951
L3969 12651
" />
<path d="M3969 12651
L969 12651
" />
<path d="M969 15951
L3969 15951
" />
<path d="M969 11751
L969 8751
" />
<path d="M6969 11751
L969 11751
" />
<path d="M6969 8751
L6969 11751
" />
<path d="M969 8751
L6969 8751
" />
<path d="M919 4701
L919 7701
" />
<path d="M5919 4701
L919 4701
" />
<path d="M5919 7701
L5919 4701
" />
<path d="M919 7701
L5919 7701
" />
</g> 
</svg>
